# xmcd
#
# Track frame offsets: 
#        150
#        13255
#        25900
#        39390
#        51611
#        60600
#        76654
#        93629
#        109062
#        124536
#        142276
#        157525
#        173995
#        187163
#        199413
#        215087
#        232468
#        245147
#
# Disc length: 3476 seconds
#
# Revision: 1
# Processed by: cddbd v1.5.2PL0 Copyright (c) Steve Scherf et al.
# Submitted via: ExactAudioCopyFreeDBPlugin 1.0
#
DISCID=110d9212
DTITLE=Matt Hurter - Cowboy Tunes
DYEAR=2007
DGENRE=Country
TTITLE0=Littlest Cowboy
TTITLE1=I can't help
TTITLE2=My dog Malcolm
TTITLE3=Een Twee Drie
TTITLE4=I walk the Line
TTITLE5=Oud word is nie vir sissies nie
TTITLE6=Harmonica Man
TTITLE7=A Place in the mountain
TTITLE8=Wandering star
TTITLE9=Vrystaat
TTITLE10=I don't believe in if
TTITLE11=Ride Safe
TTITLE12=Make the World Go Away
TTITLE13=High Noon
TTITLE14=Die Windjie waai
TTITLE15=Looking Back
TTITLE16=Swining Doors
TTITLE17=Ek is 'n superster
EXTD=
EXTT0=
EXTT1=
EXTT2=
EXTT3=
EXTT4=
EXTT5=
EXTT6=
EXTT7=
EXTT8=
EXTT9=
EXTT10=
EXTT11=
EXTT12=
EXTT13=
EXTT14=
EXTT15=
EXTT16=
EXTT17=
PLAYORDER=
